<?xml version="1.0" standalone="no"?>
<!DOCTYPE svg PUBLIC "-//W3C//DTD SVG 20010904//EN"
 "http://www.w3.org/TR/2001/REC-SVG-20010904/DTD/svg10.dtd">
<svg version="1.0" xmlns="http://www.w3.org/2000/svg"
 width="700.000000pt" height="700.000000pt" viewBox="0 0 700.000000 700.000000"
 preserveAspectRatio="xMidYMid meet">
<metadata>
Created by potrace 1.11, written by Peter Selinger 2001-2013
</metadata>
<g transform="translate(0.000000,700.000000) scale(0.100000,-0.100000)"
fill="#000000" stroke="none">
<path d="M4530 6284 c-25 -9 -58 -26 -75 -39 -31 -24 -325 -312 -721 -706
l-231 -230 -30 48 c-27 43 -52 85 -103 174 -93 163 -210 356 -231 382 -15 18
-51 46 -80 62 -46 25 -65 29 -129 29 -114 1 -191 -46 -251 -149 -20 -33 -24
-54 -24 -125 0 -96 0 -96 145 -325 38 -60 79 -126 90 -145 11 -19 27 -45 36
-57 l16 -23 -568 -1 c-704 0 -686 1 -824 -46 -265 -89 -461 -299 -542 -579
l-23 -79 0 -1250 c0 -1184 1 -1254 18 -1320 77 -291 277 -508 554 -601 78 -26
97 -30 200 -40 l61 -7 4 -176 c3 -165 5 -179 28 -225 45 -88 150 -155 246
-156 102 -1 211 66 253 155 29 61 29 67 30 248 l1 157 1120 0 1120 0 0 -159
c0 -185 12 -238 70 -304 57 -65 119 -92 210 -92 112 0 200 53 250 151 23 46
25 61 28 225 l4 177 71 6 c140 14 268 57 377 128 79 50 203 173 253 249 60 91
109 216 125 319 4 25 7 601 7 1280 l0 1235 -23 80 c-66 228 -213 413 -416 524
-48 26 -148 66 -191 76 -102 23 -116 23 -685 24 l-525 1 340 339 c385 383 389
389 382 512 -11 190 -191 313 -367 253z m779 -1699 c29 -16 68 -48 86 -70 69
-84 66 -11 63 -1315 l-3 -1175 -27 -51 c-35 -66 -94 -117 -161 -138 -47 -15
-202 -16 -1787 -14 -1628 3 -1737 4 -1772 20 -56 27 -106 75 -136 132 l-27 51
-2 1175 c-2 788 1 1188 8 1215 21 83 107 169 190 194 22 6 675 9 1774 8 l1740
-2 54 -30z"/>
<path d="M2483 4307 c-18 -16 -37 -45 -43 -65 -6 -22 -10 -198 -10 -443 0
-449 2 -462 61 -498 29 -18 58 -19 438 -19 441 0 453 2 488 54 17 26 18 60 20
434 1 223 -1 424 -4 447 -3 28 -16 55 -38 80 l-33 38 -423 1 -423 0 -33 -29z
m234 -136 c26 -13 53 -60 53 -90 0 -58 -58 -107 -114 -97 -65 12 -100 79 -72
138 28 58 81 78 133 49z m545 -9 c22 -19 37 -71 31 -105 -7 -35 -43 -67 -85
-73 -44 -8 -94 31 -104 80 -16 90 92 156 158 98z m-255 -289 c41 -50 25 -130
-30 -156 -66 -32 -141 19 -139 95 2 87 115 128 169 61z m-281 -253 c1 0 10
-12 19 -27 36 -55 24 -122 -26 -148 -42 -22 -75 -18 -109 13 -54 47 -46 123
17 159 28 16 43 19 67 12 17 -5 32 -9 32 -9z m539 -17 c14 -15 25 -32 26 -38
0 -5 2 -19 4 -30 10 -51 -43 -105 -103 -105 -28 0 -81 40 -83 63 -1 7 -3 23
-4 37 -3 26 17 66 44 87 30 23 88 16 116 -14z"/>
<path d="M3845 3460 c-16 -11 -57 -48 -90 -84 -33 -35 -128 -136 -211 -223
-212 -222 -267 -282 -281 -306 -27 -48 -10 -130 34 -168 18 -15 50 -49 373
-388 129 -135 188 -187 230 -200 3 -1 19 4 37 11 40 17 74 49 303 288 102 106
210 220 242 252 59 62 88 111 88 150 0 38 -38 90 -160 216 -63 65 -185 192
-270 282 -85 89 -167 168 -182 176 -37 19 -78 17 -113 -6z m102 -186 c13 -4
31 -23 42 -48 17 -34 19 -48 11 -78 -34 -122 -209 -69 -186 55 11 60 65 89
133 71z m-346 -413 c88 -89 -37 -233 -129 -148 -12 11 -26 35 -31 51 -25 97
90 167 160 97z m353 18 c28 -13 56 -73 50 -107 -12 -62 -63 -96 -121 -80 -63
17 -90 85 -58 148 25 49 75 63 129 39z m375 -4 c51 -26 64 -121 21 -160 -51
-46 -125 -32 -154 29 -44 92 43 178 133 131z m-370 -391 c52 -37 59 -113 15
-158 -77 -77 -196 12 -154 115 22 53 93 75 139 43z"/>
</g>
</svg>
